<mxfile host="65bd71144e">
    <diagram id="elR35_W96SNQE1rIrfRS" name="Seite-1">
        <mxGraphModel dx="1606" dy="682" grid="1" gridSize="10" guides="1" tooltips="1" connect="1" arrows="1" fold="1" page="1" pageScale="1" pageWidth="827" pageHeight="1169" math="0" shadow="0">
            <root>
                <mxCell id="0"/>
                <mxCell id="1" parent="0"/>
                <mxCell id="3" value="Home Page" style="swimlane;html=1;childLayout=stackLayout;resizeParent=1;resizeParentMax=0;startSize=20;whiteSpace=wrap;" vertex="1" parent="1">
                    <mxGeometry x="-350" y="80" width="970" height="720" as="geometry">
                        <mxRectangle x="50" y="80" width="50" height="30" as="alternateBounds"/>
                    </mxGeometry>
                </mxCell>
                <mxCell id="4" value="&lt;div align=&quot;left&quot;&gt;&lt;b&gt;&amp;nbsp;&amp;nbsp;&amp;nbsp;&amp;nbsp;&amp;nbsp;&amp;nbsp;&amp;nbsp;&amp;nbsp;&amp;nbsp;&amp;nbsp;&amp;nbsp;&amp;nbsp;&amp;nbsp;&amp;nbsp;&amp;nbsp;&amp;nbsp;&amp;nbsp;&amp;nbsp; &amp;nbsp; &amp;nbsp; &amp;nbsp; &amp;nbsp; &amp;nbsp; &amp;nbsp; &amp;nbsp; &amp;nbsp;&amp;nbsp; User Activity&lt;/b&gt;&lt;/div&gt;" style="swimlane;html=1;startSize=20;align=left;fontStyle=4" vertex="1" parent="3">
                    <mxGeometry y="20" width="680" height="700" as="geometry"/>
                </mxCell>
                <mxCell id="5" value="" style="edgeStyle=orthogonalEdgeStyle;rounded=0;orthogonalLoop=1;jettySize=auto;html=1;" edge="1" parent="4" source="6">
                    <mxGeometry relative="1" as="geometry">
                        <mxPoint x="390" y="70" as="targetPoint"/>
                        <Array as="points">
                            <mxPoint x="270" y="150"/>
                            <mxPoint x="270" y="70"/>
                        </Array>
                    </mxGeometry>
                </mxCell>
                <mxCell id="6" value="log in " style="rounded=1;whiteSpace=wrap;html=1;" vertex="1" parent="4">
                    <mxGeometry x="90" y="120" width="120" height="60" as="geometry"/>
                </mxCell>
                <mxCell id="7" style="edgeStyle=orthogonalEdgeStyle;rounded=0;orthogonalLoop=1;jettySize=auto;html=1;exitX=1;exitY=0.5;exitDx=0;exitDy=0;" edge="1" parent="4" source="8">
                    <mxGeometry relative="1" as="geometry">
                        <mxPoint x="390" y="230" as="targetPoint"/>
                    </mxGeometry>
                </mxCell>
                <mxCell id="8" value="Click &quot;Explore Now&quot;" style="rounded=1;whiteSpace=wrap;html=1;" vertex="1" parent="4">
                    <mxGeometry x="90" y="200" width="120" height="60" as="geometry"/>
                </mxCell>
                <mxCell id="9" style="edgeStyle=orthogonalEdgeStyle;rounded=0;orthogonalLoop=1;jettySize=auto;html=1;exitX=1;exitY=0.5;exitDx=0;exitDy=0;" edge="1" parent="4" source="10">
                    <mxGeometry relative="1" as="geometry">
                        <mxPoint x="800" y="300" as="targetPoint"/>
                    </mxGeometry>
                </mxCell>
                <mxCell id="10" value="Scroll Page" style="rounded=1;whiteSpace=wrap;html=1;" vertex="1" parent="4">
                    <mxGeometry x="90" y="270" width="120" height="60" as="geometry"/>
                </mxCell>
                <mxCell id="11" style="edgeStyle=orthogonalEdgeStyle;rounded=0;orthogonalLoop=1;jettySize=auto;html=1;exitX=1;exitY=0.5;exitDx=0;exitDy=0;entryX=0;entryY=0.5;entryDx=0;entryDy=0;" edge="1" parent="4" source="12" target="22">
                    <mxGeometry relative="1" as="geometry"/>
                </mxCell>
                <mxCell id="12" value="Select&amp;nbsp; an Option " style="rounded=1;whiteSpace=wrap;html=1;" vertex="1" parent="4">
                    <mxGeometry x="90" y="360" width="120" height="60" as="geometry"/>
                </mxCell>
                <mxCell id="13" style="edgeStyle=orthogonalEdgeStyle;rounded=0;orthogonalLoop=1;jettySize=auto;html=1;" edge="1" parent="4" source="14" target="28">
                    <mxGeometry relative="1" as="geometry"/>
                </mxCell>
                <mxCell id="14" value="Sign Out" style="rounded=1;whiteSpace=wrap;html=1;" vertex="1" parent="4">
                    <mxGeometry x="90" y="480" width="120" height="60" as="geometry"/>
                </mxCell>
                <mxCell id="15" value="" style="ellipse;html=1;shape=endState;fillColor=#000000;strokeColor=#ff0000;" vertex="1" parent="4">
                    <mxGeometry x="140" y="560" width="30" height="30" as="geometry"/>
                </mxCell>
                <mxCell id="16" value="System Activity" style="swimlane;html=1;startSize=20;" vertex="1" parent="4">
                    <mxGeometry x="350" width="330" height="700" as="geometry"/>
                </mxCell>
                <mxCell id="17" style="edgeStyle=orthogonalEdgeStyle;rounded=0;orthogonalLoop=1;jettySize=auto;html=1;exitX=0;exitY=0.75;exitDx=0;exitDy=0;entryX=0;entryY=0.5;entryDx=0;entryDy=0;" edge="1" parent="16" source="18" target="25">
                    <mxGeometry relative="1" as="geometry"/>
                </mxCell>
                <mxCell id="18" value="Validte Credentials" style="rounded=1;whiteSpace=wrap;html=1;" vertex="1" parent="16">
                    <mxGeometry x="50" y="40" width="120" height="60" as="geometry"/>
                </mxCell>
                <mxCell id="19" style="edgeStyle=orthogonalEdgeStyle;rounded=0;orthogonalLoop=1;jettySize=auto;html=1;exitX=1;exitY=0.5;exitDx=0;exitDy=0;" edge="1" parent="16" source="20">
                    <mxGeometry relative="1" as="geometry">
                        <mxPoint x="450" y="240" as="targetPoint"/>
                    </mxGeometry>
                </mxCell>
                <mxCell id="20" value="Fetch Data" style="rounded=1;whiteSpace=wrap;html=1;" vertex="1" parent="16">
                    <mxGeometry x="50" y="210" width="120" height="60" as="geometry"/>
                </mxCell>
                <mxCell id="21" style="edgeStyle=orthogonalEdgeStyle;rounded=0;orthogonalLoop=1;jettySize=auto;html=1;exitX=1;exitY=0.5;exitDx=0;exitDy=0;" edge="1" parent="16" source="22">
                    <mxGeometry relative="1" as="geometry">
                        <mxPoint x="450" y="370" as="targetPoint"/>
                        <Array as="points">
                            <mxPoint x="170" y="370"/>
                        </Array>
                    </mxGeometry>
                </mxCell>
                <mxCell id="22" value="Process Selection" style="rounded=1;whiteSpace=wrap;html=1;" vertex="1" parent="16">
                    <mxGeometry x="50" y="320" width="120" height="60" as="geometry"/>
                </mxCell>
                <mxCell id="23" value="" style="edgeStyle=orthogonalEdgeStyle;rounded=0;orthogonalLoop=1;jettySize=auto;html=1;" edge="1" parent="16" source="24" target="32">
                    <mxGeometry relative="1" as="geometry"/>
                </mxCell>
                <mxCell id="24" value="Store Session Data" style="rounded=1;whiteSpace=wrap;html=1;" vertex="1" parent="16">
                    <mxGeometry x="50" y="390" width="120" height="60" as="geometry"/>
                </mxCell>
                <mxCell id="25" value="&lt;div&gt;&lt;b&gt;Log in Credentials&lt;/b&gt;&lt;/div&gt;&lt;div&gt;&lt;b&gt;Valid&lt;br&gt;&lt;/b&gt;&lt;/div&gt;" style="rhombus;whiteSpace=wrap;html=1;fontColor=#000000;fillColor=#ffffc0;strokeColor=#ff0000;" vertex="1" parent="16">
                    <mxGeometry x="40" y="110" width="120" height="60" as="geometry"/>
                </mxCell>
                <mxCell id="26" value="no" style="edgeStyle=orthogonalEdgeStyle;html=1;align=left;verticalAlign=bottom;endArrow=open;endSize=8;strokeColor=#ff0000;rounded=0;" edge="1" parent="16" source="25">
                    <mxGeometry x="-0.107" y="1" relative="1" as="geometry">
                        <mxPoint x="440" y="140" as="targetPoint"/>
                        <Array as="points">
                            <mxPoint x="240" y="140"/>
                            <mxPoint x="430" y="141"/>
                        </Array>
                        <mxPoint as="offset"/>
                    </mxGeometry>
                </mxCell>
                <mxCell id="27" value="yes" style="edgeStyle=orthogonalEdgeStyle;html=1;align=left;verticalAlign=top;endArrow=open;endSize=8;strokeColor=#ff0000;rounded=0;" edge="1" parent="16" source="25">
                    <mxGeometry x="0.1549" y="10" relative="1" as="geometry">
                        <mxPoint x="450" y="200" as="targetPoint"/>
                        <Array as="points">
                            <mxPoint x="110" y="200"/>
                            <mxPoint x="381" y="200"/>
                        </Array>
                        <mxPoint as="offset"/>
                    </mxGeometry>
                </mxCell>
                <mxCell id="28" value="&lt;div&gt;&lt;b&gt;&lt;font style=&quot;font-size: 10px;&quot;&gt;Session stored &lt;br&gt;&lt;/font&gt;&lt;/b&gt;&lt;/div&gt;&lt;div&gt;&lt;font style=&quot;font-size: 10px;&quot;&gt;&lt;b&gt;Sucessfully&lt;/b&gt;&lt;/font&gt;&lt;br&gt;&lt;/div&gt;" style="rhombus;whiteSpace=wrap;html=1;fontColor=#000000;fillColor=#ffffc0;strokeColor=#ff0000;" vertex="1" parent="16">
                    <mxGeometry x="70" y="480" width="110" height="90" as="geometry"/>
                </mxCell>
                <mxCell id="29" value="" style="shape=waypoint;sketch=0;size=6;pointerEvents=1;points=[];fillColor=default;resizable=0;rotatable=0;perimeter=centerPerimeter;snapToPoint=1;rounded=1;" vertex="1" parent="16">
                    <mxGeometry x="15" y="60" width="20" height="20" as="geometry"/>
                </mxCell>
                <mxCell id="30" value="Yes" style="edgeStyle=orthogonalEdgeStyle;html=1;align=left;verticalAlign=top;endArrow=open;endSize=8;strokeColor=#ff0000;rounded=0;" edge="1" parent="16">
                    <mxGeometry x="0.0322" relative="1" as="geometry">
                        <mxPoint x="460" y="509.40999999999997" as="targetPoint"/>
                        <Array as="points">
                            <mxPoint x="460" y="509.40999999999997"/>
                        </Array>
                        <mxPoint x="150" y="509.40999999999997" as="sourcePoint"/>
                        <mxPoint as="offset"/>
                    </mxGeometry>
                </mxCell>
                <mxCell id="31" value="Text" style="edgeLabel;html=1;align=center;verticalAlign=middle;resizable=0;points=[];" connectable="0" vertex="1" parent="30">
                    <mxGeometry x="-0.9567" y="-3" relative="1" as="geometry">
                        <mxPoint as="offset"/>
                    </mxGeometry>
                </mxCell>
                <mxCell id="32" value="" style="shape=waypoint;sketch=0;size=6;pointerEvents=1;points=[];fillColor=default;resizable=0;rotatable=0;perimeter=centerPerimeter;snapToPoint=1;rounded=1;" vertex="1" parent="16">
                    <mxGeometry x="80" y="500" width="20" height="20" as="geometry"/>
                </mxCell>
                <mxCell id="33" value="" style="endArrow=classic;html=1;rounded=0;exitX=0.5;exitY=0;exitDx=0;exitDy=0;fillColor=#FF3333;strokeColor=#FF3333;entryX=-0.032;entryY=0.635;entryDx=0;entryDy=0;entryPerimeter=0;" edge="1" parent="16" target="45">
                    <mxGeometry width="50" height="50" relative="1" as="geometry">
                        <mxPoint x="120" y="480" as="sourcePoint"/>
                        <mxPoint x="450" y="460" as="targetPoint"/>
                        <Array as="points">
                            <mxPoint x="120" y="460"/>
                            <mxPoint x="360" y="460"/>
                        </Array>
                    </mxGeometry>
                </mxCell>
                <mxCell id="34" value="No" style="edgeLabel;html=1;align=center;verticalAlign=middle;resizable=0;points=[];" connectable="0" vertex="1" parent="33">
                    <mxGeometry x="0.1375" relative="1" as="geometry">
                        <mxPoint as="offset"/>
                    </mxGeometry>
                </mxCell>
                <mxCell id="35" value="" style="ellipse;html=1;shape=startState;fillColor=#000000;strokeColor=#ff0000;" vertex="1" parent="4">
                    <mxGeometry x="135" y="30" width="30" height="30" as="geometry"/>
                </mxCell>
                <mxCell id="36" value="" style="edgeStyle=orthogonalEdgeStyle;html=1;verticalAlign=bottom;endArrow=open;endSize=8;strokeColor=#ff0000;rounded=0;" edge="1" parent="4" source="35">
                    <mxGeometry relative="1" as="geometry">
                        <mxPoint x="150" y="110" as="targetPoint"/>
                    </mxGeometry>
                </mxCell>
                <mxCell id="37" value="" style="edgeStyle=orthogonalEdgeStyle;rounded=0;orthogonalLoop=1;jettySize=auto;html=1;" edge="1" parent="4">
                    <mxGeometry relative="1" as="geometry">
                        <mxPoint x="860.0000000000005" y="550" as="sourcePoint"/>
                        <mxPoint x="160" y="600" as="targetPoint"/>
                        <Array as="points">
                            <mxPoint x="860" y="630"/>
                            <mxPoint x="160" y="630"/>
                        </Array>
                    </mxGeometry>
                </mxCell>
                <mxCell id="38" value="User Interface" style="swimlane;html=1;startSize=20;" vertex="1" parent="3">
                    <mxGeometry x="680" y="20" width="290" height="700" as="geometry"/>
                </mxCell>
                <mxCell id="39" value="Display Login Result" style="rounded=1;whiteSpace=wrap;html=1;" vertex="1" parent="38">
                    <mxGeometry x="130" y="30" width="120" height="60" as="geometry"/>
                </mxCell>
                <mxCell id="40" value="Render Home Page" style="rounded=1;whiteSpace=wrap;html=1;" vertex="1" parent="38">
                    <mxGeometry x="130" y="180" width="120" height="70" as="geometry"/>
                </mxCell>
                <mxCell id="41" value="Refresh Display" style="rounded=1;whiteSpace=wrap;html=1;" vertex="1" parent="38">
                    <mxGeometry x="130" y="265" width="120" height="60" as="geometry"/>
                </mxCell>
                <mxCell id="42" value="Highlight selected item" style="rounded=1;whiteSpace=wrap;html=1;" vertex="1" parent="38">
                    <mxGeometry x="130" y="340" width="120" height="60" as="geometry"/>
                </mxCell>
                <mxCell id="43" value="Display Logout Message" style="rounded=1;whiteSpace=wrap;html=1;" vertex="1" parent="38">
                    <mxGeometry x="130" y="485" width="120" height="50" as="geometry"/>
                </mxCell>
                <mxCell id="44" value="&lt;div&gt;Didplay Error &lt;br&gt;&lt;/div&gt;&lt;div&gt;Message&lt;br&gt;&lt;/div&gt;" style="rounded=1;whiteSpace=wrap;html=1;" vertex="1" parent="38">
                    <mxGeometry x="130" y="100" width="120" height="60" as="geometry"/>
                </mxCell>
                <mxCell id="45" value="&lt;div&gt;Display Error &lt;br&gt;&lt;/div&gt;&lt;div&gt;Message&lt;br&gt;&lt;/div&gt;" style="rounded=1;whiteSpace=wrap;html=1;" vertex="1" parent="38">
                    <mxGeometry x="130" y="420" width="120" height="60" as="geometry"/>
                </mxCell>
                <mxCell id="46" value="" style="shape=waypoint;sketch=0;size=6;pointerEvents=1;points=[];fillColor=default;resizable=0;rotatable=0;perimeter=centerPerimeter;snapToPoint=1;rounded=1;" vertex="1" parent="38">
                    <mxGeometry x="110" y="60" width="20" height="20" as="geometry"/>
                </mxCell>
                <mxCell id="47" value="" style="edgeStyle=orthogonalEdgeStyle;rounded=0;orthogonalLoop=1;jettySize=auto;html=1;" edge="1" parent="3" source="18" target="46">
                    <mxGeometry relative="1" as="geometry"/>
                </mxCell>
            </root>
        </mxGraphModel>
    </diagram>
</mxfile>